<svg xmlns="http://www.w3.org/2000/svg" width="720" height="320" viewBox="0 0 720 320" fill="#467566" color="#467566">
<defs><linearGradient id="bg" x2="1" y2="1"><stop stop-color="#dce8e4"/><stop offset="1" stop-color="#b5d1c6"/></linearGradient><pattern id="dots" width="22" height="22" patternUnits="userSpaceOnUse"><circle cx="1" cy="1" r="1" fill="#467566" opacity=".12"/></pattern></defs>
<path fill="url(#bg)" d="M0 0h720v320H0z"/><path fill="url(#dots)" d="M0 0h720v320H0z"/><circle cx="362" cy="166" r="126" fill="#dce8e4" opacity=".6"/><circle cx="362" cy="166" r="145" fill="none" stroke="#467566" opacity=".12"/><path d="M105 255h55m-27-27v54M554 81h38m-19-19v38" stroke="#467566" stroke-width="2" opacity=".22"/><g stroke="currentColor" stroke-width="3" fill="none" opacity=".55"><path d="m280 117 81 37 74-58m-74 58 78 72m-78-72-79 65m79-65-2-76"/><path d="m282 219 157 7" stroke-dasharray="5 6"/></g><g fill="#f1f8ed" stroke="currentColor" stroke-width="3"><circle cx="280" cy="117" r="20"/><circle cx="435" cy="96" r="17"/><circle cx="439" cy="226" r="23"/><circle cx="282" cy="219" r="17"/><circle cx="359" cy="78" r="13"/></g><path d="m361 122 30 12v30c0 20-30 36-30 36s-30-16-30-36v-30z"/><path d="m347 157 10 10 19-23" stroke="#eef9dd" stroke-width="4" fill="none" stroke-linecap="round"/></svg>